<?xml version="1.0" encoding="UTF-8" ?>
<!DOCTYPE svg PUBLIC "-//W3C//DTD SVG 1.1//EN" "http://www.w3.org/Graphics/SVG/1.1/DTD/svg11.dtd">
<svg width="256pt" height="256pt" viewBox="0 0 256 256" version="1.1" xmlns="http://www.w3.org/2000/svg">
<g id="#000000ff">
<path fill="#000000" opacity="1.00" d=" M 233.25 0.00 L 234.50 0.00 C 237.94 0.41 240.76 2.82 241.93 6.04 C 250.46 25.61 249.35 48.64 240.75 68.00 C 246.68 80.01 251.66 92.62 253.72 105.92 C 255.44 113.06 255.22 120.44 256.00 127.71 L 256.00 128.24 C 255.50 142.60 253.54 157.02 248.54 170.55 C 237.52 202.13 213.51 228.91 183.30 243.27 C 166.84 251.42 148.53 255.40 130.22 256.00 L 125.97 256.00 C 111.44 255.47 96.89 253.08 83.30 247.81 C 44.93 233.73 14.44 200.08 4.37 160.45 C 1.41 150.02 0.53 139.17 0.00 128.38 L 0.00 127.91 C 0.67 114.68 2.11 101.35 6.59 88.80 C 8.54 81.51 12.20 74.87 15.21 67.99 C 6.61 48.38 5.43 24.98 14.43 5.29 C 16.16 0.67 22.37 -1.31 26.38 1.68 C 29.85 3.91 29.50 8.48 31.25 11.78 C 34.99 18.77 40.42 24.69 46.32 29.92 C 71.77 8.49 105.79 -2.29 138.94 0.73 C 164.79 2.85 189.80 13.27 209.65 29.93 C 217.01 23.21 224.64 15.50 226.73 5.38 C 227.43 2.32 230.39 0.61 233.25 0.00 M 60.47 63.71 C 57.33 64.89 55.40 67.86 53.48 70.44 C 47.34 79.52 46.48 91.83 51.17 101.71 C 55.04 109.84 62.43 116.27 71.10 118.75 C 82.27 122.08 95.23 118.73 103.10 110.06 C 105.88 106.89 105.24 101.78 102.20 99.01 C 91.37 88.11 80.47 77.27 69.61 66.39 C 67.34 63.91 63.75 62.45 60.47 63.71 M 190.43 63.66 C 188.62 64.26 187.21 65.62 185.86 66.90 C 175.38 77.43 164.86 87.92 154.35 98.42 C 152.32 100.39 150.68 103.10 151.18 106.05 C 151.74 110.56 156.13 113.06 159.53 115.42 C 172.26 123.45 190.38 120.57 200.02 109.01 C 211.16 96.88 210.21 76.03 197.91 65.05 C 195.87 63.34 192.94 62.83 190.43 63.66 M 42.28 144.32 C 37.78 144.82 34.55 149.74 35.79 154.08 C 40.53 171.65 50.74 187.64 64.33 199.70 C 78.70 212.49 96.96 220.85 116.06 223.22 C 137.17 225.95 159.13 221.27 177.33 210.23 C 196.66 198.68 211.70 180.13 218.84 158.75 C 219.91 155.54 221.32 151.86 219.60 148.61 C 218.17 145.34 214.43 143.95 211.06 144.09 C 157.69 144.09 104.32 144.09 50.96 144.09 C 48.06 144.12 45.15 143.91 42.28 144.32 Z" />
</g>
</svg>
