<?xml version="1.0" encoding="UTF-8" ?>
<!DOCTYPE svg PUBLIC "-//W3C//DTD SVG 1.1//EN" "http://www.w3.org/Graphics/SVG/1.1/DTD/svg11.dtd">
<svg width="256pt" height="256pt" viewBox="0 0 256 256" version="1.1" xmlns="http://www.w3.org/2000/svg">
<g id="#000000ff">
<path fill="#000000" opacity="1.00" d=" M 148.00 4.00 C 150.67 4.00 153.33 4.00 156.00 4.00 C 156.00 11.71 156.00 19.41 156.00 27.12 C 153.33 27.65 150.67 28.19 148.00 28.72 C 148.00 20.48 148.00 12.24 148.00 4.00 Z" />
<path fill="#000000" opacity="1.00" d=" M 132.00 12.00 C 134.67 12.00 137.33 12.00 140.00 12.00 C 140.00 18.09 139.98 24.19 140.03 30.28 C 137.36 30.84 134.68 31.39 132.01 31.94 C 131.99 25.29 132.00 18.65 132.00 12.00 Z" />
<path fill="#000000" opacity="1.00" d=" M 164.00 12.00 C 166.67 12.00 169.33 12.00 172.00 12.00 C 172.00 15.98 172.00 19.96 172.00 23.94 C 169.33 24.47 166.66 24.99 164.00 25.52 C 164.00 21.01 164.00 16.51 164.00 12.00 Z" />
<path fill="#000000" opacity="1.00" d=" M 116.01 43.28 C 140.02 38.58 164.00 33.71 188.00 28.92 C 188.00 53.95 188.00 78.97 188.00 104.00 C 178.67 104.00 169.33 104.00 160.00 104.00 C 160.00 110.67 160.00 117.33 160.00 124.00 C 158.66 124.00 157.33 124.00 156.00 124.00 C 156.00 154.61 156.00 185.22 156.00 215.83 C 152.95 216.19 149.93 216.76 146.98 217.60 C 138.99 209.60 126.99 206.23 116.00 208.93 C 116.01 153.71 115.99 98.49 116.01 43.28 M 128.00 56.00 C 128.00 64.00 128.00 72.00 128.00 80.00 C 133.33 80.00 138.67 80.00 144.00 80.00 C 144.00 72.00 144.00 64.00 144.00 56.00 C 138.67 56.00 133.33 56.00 128.00 56.00 M 160.00 56.00 C 160.00 64.00 160.00 72.00 160.00 80.00 C 165.33 80.00 170.67 80.00 176.00 80.00 C 176.00 72.00 176.00 64.00 176.00 56.00 C 170.67 56.00 165.33 56.00 160.00 56.00 M 128.00 96.00 C 128.00 104.00 128.00 112.00 128.00 120.00 C 133.33 120.00 138.67 120.00 144.00 120.00 C 144.00 112.00 144.00 104.00 144.00 96.00 C 138.67 96.00 133.33 96.00 128.00 96.00 M 128.00 136.00 C 128.00 144.00 128.00 152.00 128.00 160.00 C 133.33 160.00 138.67 160.00 144.00 160.00 C 144.00 152.00 144.00 144.00 144.00 136.00 C 138.67 136.00 133.33 136.00 128.00 136.00 M 128.00 176.00 C 128.00 184.00 128.00 192.00 128.00 200.00 C 133.33 200.00 138.67 200.00 144.00 200.00 C 144.00 192.00 144.00 184.00 144.00 176.00 C 138.67 176.00 133.33 176.00 128.00 176.00 Z" />
<path fill="#000000" opacity="1.00" d=" M 52.00 68.00 C 70.67 68.00 89.33 68.00 108.00 68.00 C 108.00 116.07 108.00 164.13 108.00 212.20 C 103.62 214.94 99.82 218.53 96.90 222.80 C 92.49 218.95 86.97 216.17 81.02 216.04 C 71.18 215.45 61.46 221.72 57.82 230.86 C 55.98 234.96 55.90 239.53 56.18 243.94 C 58.89 243.99 61.60 244.00 64.32 244.02 C 63.92 240.20 63.80 236.14 65.77 232.69 C 69.12 225.84 77.75 222.27 84.95 224.81 C 88.79 225.89 91.62 228.85 94.00 231.89 C 96.34 232.10 98.67 232.36 100.99 232.68 C 104.26 223.49 113.00 216.24 122.94 216.04 C 131.90 215.50 140.46 220.62 145.02 228.21 C 148.23 225.90 151.92 223.82 156.01 224.01 C 160.09 223.88 163.77 225.90 166.98 228.20 C 171.53 220.60 180.11 215.49 189.07 216.04 C 198.89 216.25 207.56 223.34 210.87 232.41 C 220.95 230.41 231.61 235.17 236.85 244.00 C 241.90 244.00 246.95 244.00 252.00 244.00 C 252.00 246.66 252.00 249.33 252.00 252.00 C 169.33 252.00 86.67 252.00 4.00 252.00 C 4.00 249.33 4.00 246.66 4.00 244.00 C 9.33 244.00 14.67 244.00 20.00 244.00 C 19.99 238.53 20.05 233.06 19.94 227.60 C 7.32 223.95 1.54 208.81 4.91 196.85 C 6.95 188.45 13.90 180.58 22.93 180.05 C 27.86 179.52 32.33 181.99 36.17 184.77 C 36.16 183.24 36.04 181.73 35.80 180.23 C 32.28 178.25 28.11 177.55 24.95 174.91 C 11.67 165.20 8.38 145.37 16.18 131.23 C 20.90 122.20 30.63 115.44 41.06 116.06 C 49.48 116.27 56.96 121.36 61.88 127.94 C 69.37 127.64 76.93 130.35 82.21 135.73 C 94.66 147.88 95.23 169.73 83.68 182.67 C 79.67 187.39 74.00 190.41 67.99 191.75 C 67.60 195.82 69.42 200.89 65.90 203.99 C 59.24 211.62 52.72 219.38 46.06 227.02 C 45.15 228.18 43.85 229.31 44.04 230.96 C 43.86 235.30 44.06 239.65 44.00 244.00 C 46.67 244.00 49.34 244.00 52.01 244.00 C 52.58 239.38 50.32 233.64 54.05 229.99 C 60.86 222.17 67.56 214.24 74.37 206.41 C 76.81 204.14 75.82 200.57 76.12 197.62 C 88.00 192.82 96.52 181.52 99.03 169.11 C 102.46 153.67 96.70 136.45 84.04 126.78 C 84.03 126.12 84.01 124.81 84.00 124.16 C 81.66 124.02 79.25 123.92 77.11 122.85 C 73.59 121.19 69.73 120.68 65.98 119.81 C 64.26 118.87 63.00 117.30 61.55 116.02 C 63.70 116.00 65.85 116.00 68.00 116.00 C 68.00 113.33 68.00 110.66 68.00 108.00 C 65.33 108.00 62.66 108.00 60.00 108.00 C 60.00 110.21 60.00 112.43 60.01 114.64 C 57.43 113.01 54.75 111.53 52.00 110.21 C 52.00 96.14 52.00 82.07 52.00 68.00 M 60.00 76.00 C 60.00 78.67 60.00 81.33 60.00 84.00 C 62.67 84.00 65.33 84.00 68.00 84.00 C 68.00 81.33 68.00 78.67 68.00 76.00 C 65.33 76.00 62.67 76.00 60.00 76.00 M 76.00 76.00 C 76.00 78.67 76.00 81.33 76.00 84.00 C 78.67 84.00 81.33 84.00 84.00 84.00 C 84.00 81.33 84.00 78.67 84.00 76.00 C 81.33 76.00 78.67 76.00 76.00 76.00 M 92.00 76.00 C 92.00 78.67 92.00 81.33 92.00 84.00 C 94.67 84.00 97.33 84.00 100.00 84.00 C 100.00 81.33 100.00 78.67 100.00 76.00 C 97.33 76.00 94.67 76.00 92.00 76.00 M 60.00 92.00 C 60.00 94.67 60.00 97.33 60.00 100.00 C 62.67 100.00 65.33 100.00 68.00 100.00 C 68.00 97.33 68.00 94.67 68.00 92.00 C 65.33 92.00 62.67 92.00 60.00 92.00 M 76.00 92.00 C 76.00 94.67 76.00 97.33 76.00 100.00 C 78.67 100.00 81.33 100.00 84.00 100.00 C 84.00 97.33 84.00 94.67 84.00 92.00 C 81.33 92.00 78.67 92.00 76.00 92.00 M 92.00 92.00 C 92.00 94.67 92.00 97.33 92.00 100.00 C 94.67 100.00 97.33 100.00 100.00 100.00 C 100.00 97.33 100.00 94.67 100.00 92.00 C 97.33 92.00 94.67 92.00 92.00 92.00 M 76.00 108.00 C 76.00 110.67 76.00 113.33 76.00 116.00 C 78.67 116.00 81.33 116.00 84.00 116.00 C 84.00 113.33 84.00 110.67 84.00 108.00 C 81.33 108.00 78.67 108.00 76.00 108.00 M 92.00 108.00 C 92.00 110.67 92.00 113.33 92.00 116.00 C 94.67 116.00 97.33 116.00 100.00 116.00 C 100.00 113.33 100.00 110.67 100.00 108.00 C 97.33 108.00 94.67 108.00 92.00 108.00 M 92.00 124.00 C 92.00 126.67 92.00 129.33 92.00 132.00 C 94.67 132.00 97.33 132.00 100.00 132.00 C 100.00 129.33 100.00 126.67 100.00 124.00 C 97.33 124.00 94.67 124.00 92.00 124.00 M 36.00 144.00 C 36.14 155.58 35.74 167.20 36.17 178.76 C 37.71 180.41 40.13 179.84 42.14 180.04 C 42.60 180.59 43.54 181.68 44.01 182.23 C 43.99 169.49 44.01 156.74 44.00 144.00 C 41.33 144.00 38.67 144.00 36.00 144.00 M 43.97 182.42 C 44.04 194.01 43.97 205.59 44.01 217.17 C 49.35 211.01 54.58 204.77 59.95 198.64 C 59.98 196.34 60.00 194.05 60.01 191.75 C 53.79 190.47 48.21 187.12 43.97 182.42 M 28.05 227.62 C 27.96 233.08 28.00 238.54 28.00 244.00 C 30.67 244.00 33.33 244.00 36.00 244.00 C 36.01 237.11 35.97 230.21 36.03 223.32 C 33.57 225.10 30.90 226.56 28.05 227.62 Z" />
<path fill="#000000" opacity="1.00" d=" M 212.00 68.00 C 214.67 68.00 217.33 68.00 220.00 68.00 C 220.00 74.67 220.00 81.33 220.00 88.00 C 221.33 88.00 222.66 88.00 224.00 88.00 C 224.00 96.00 224.00 104.00 224.00 112.00 C 226.66 112.00 229.33 112.00 232.00 112.00 C 232.00 116.00 232.00 120.00 232.00 124.00 C 210.67 124.00 189.33 124.00 168.00 124.00 C 168.00 120.00 168.00 116.00 168.00 112.00 C 181.33 112.00 194.67 112.00 208.00 112.00 C 208.00 104.00 208.00 96.00 208.00 88.00 C 209.33 88.00 210.66 88.00 212.00 88.00 C 212.00 81.33 212.00 74.67 212.00 68.00 Z" />
<path fill="#000000" opacity="1.00" d=" M 164.00 132.00 C 188.00 132.00 212.00 132.00 236.00 132.00 C 236.01 165.00 235.98 198.00 236.01 231.00 C 233.42 229.27 230.73 227.69 227.96 226.26 C 228.05 197.51 227.98 168.75 228.00 140.00 C 209.33 140.00 190.67 140.00 172.00 140.00 C 172.00 164.07 172.00 188.14 172.00 212.21 C 169.34 214.14 166.71 216.09 164.07 218.04 C 163.91 189.36 164.05 160.68 164.00 132.00 Z" />
<path fill="#000000" opacity="1.00" d=" M 180.00 148.00 C 185.33 148.00 190.67 148.00 196.00 148.00 C 196.00 168.32 196.00 188.63 196.00 208.95 C 190.72 207.81 185.27 207.82 180.00 208.97 C 180.00 188.65 180.00 168.32 180.00 148.00 Z" />
<path fill="#000000" opacity="1.00" d=" M 204.00 148.00 C 209.33 148.00 214.67 148.00 220.00 148.00 C 220.00 173.42 220.00 198.84 220.00 224.27 C 218.60 224.17 217.20 224.08 215.81 223.99 C 212.80 219.24 208.81 215.15 204.01 212.22 C 203.99 190.81 204.00 169.41 204.00 148.00 Z" />
</g>
</svg>
