<?xml version="1.0" encoding="UTF-8" ?>
<!DOCTYPE svg PUBLIC "-//W3C//DTD SVG 1.1//EN" "http://www.w3.org/Graphics/SVG/1.1/DTD/svg11.dtd">
<svg width="256pt" height="256pt" viewBox="0 0 256 256" version="1.1" xmlns="http://www.w3.org/2000/svg">
<g id="#000000ff">
<path fill="#000000" opacity="1.00" d=" M 37.86 6.81 C 41.64 2.95 48.38 2.94 52.24 6.69 C 58.24 12.49 64.07 18.49 70.00 24.37 C 54.87 39.62 39.58 54.70 24.49 69.98 C 18.50 64.11 12.57 58.18 6.70 52.20 C 2.70 48.19 3.07 41.10 7.26 37.36 C 17.45 27.17 27.59 16.92 37.86 6.81 Z" />
<path fill="#000000" opacity="1.00" d=" M 186.63 16.98 C 190.94 12.64 195.28 8.32 199.61 3.99 C 217.07 21.47 234.59 38.90 251.99 56.44 C 229.30 79.05 206.69 101.75 184.01 124.37 C 166.54 106.92 149.09 89.45 131.62 72.00 C 133.99 69.52 136.39 67.07 138.79 64.62 C 143.44 69.17 147.98 73.85 152.64 78.40 C 154.62 80.42 158.33 80.23 160.12 78.06 C 161.88 76.19 161.57 73.03 159.72 71.34 C 155.18 66.73 150.57 62.18 146.01 57.58 C 150.42 53.19 154.79 48.78 159.21 44.41 C 167.85 52.89 176.35 61.51 185.02 69.95 C 187.72 72.58 193.03 70.87 193.44 67.04 C 193.86 65.01 192.55 63.27 191.18 61.94 C 182.91 53.71 174.69 45.42 166.40 37.20 C 170.79 32.80 175.19 28.40 179.59 24.01 C 184.21 28.56 188.64 33.30 193.27 37.83 C 195.38 39.96 199.35 39.55 201.02 37.08 C 202.45 35.19 202.03 32.36 200.34 30.77 C 195.85 26.10 191.17 21.61 186.63 16.98 Z" />
<path fill="#000000" opacity="1.00" d=" M 60.04 47.99 C 65.69 42.46 71.34 36.93 77.01 31.41 C 130.37 84.70 183.68 138.05 237.00 191.38 C 231.35 196.94 225.69 202.48 220.00 207.99 C 166.71 154.63 113.34 101.34 60.04 47.99 Z" />
<path fill="#000000" opacity="1.00" d=" M 31.44 76.99 C 36.94 71.11 42.49 65.28 48.00 59.41 C 101.37 112.70 154.68 166.04 208.00 219.38 C 202.51 225.29 196.94 231.12 191.42 236.99 C 138.10 183.65 84.75 130.34 31.44 76.99 Z" />
<path fill="#000000" opacity="1.00" d=" M 64.63 138.98 C 67.08 136.51 69.53 134.05 72.01 131.61 C 89.50 149.04 106.93 166.52 124.40 183.98 C 101.75 206.67 79.07 229.33 56.40 251.99 C 38.96 234.51 21.49 217.04 4.00 199.60 C 8.27 195.27 12.52 190.94 16.78 186.62 C 21.44 191.17 25.98 195.85 30.65 200.40 C 32.61 202.40 36.26 202.24 38.07 200.11 C 39.88 198.27 39.60 195.08 37.75 193.38 C 33.20 188.76 28.60 184.18 24.01 179.61 C 28.40 175.19 32.79 170.79 37.21 166.41 C 45.86 174.89 54.36 183.53 63.05 191.98 C 65.77 194.58 71.05 192.84 71.45 189.02 C 71.84 187.00 70.56 185.28 69.21 183.97 C 60.94 175.72 52.69 167.44 44.40 159.20 C 48.79 154.80 53.19 150.40 57.60 146.01 C 62.21 150.58 66.66 155.31 71.30 159.85 C 73.41 161.98 77.39 161.54 79.05 159.05 C 80.45 157.15 80.02 154.35 78.34 152.77 C 73.85 148.10 69.17 143.61 64.63 138.98 Z" />
<path fill="#000000" opacity="1.00" d=" M 200.83 241.63 C 214.44 228.05 228.13 214.56 241.61 200.85 C 245.07 217.90 248.55 234.95 251.99 252.00 C 234.94 248.51 217.90 245.00 200.83 241.63 Z" />
</g>
</svg>
