<?xml version="1.0" encoding="UTF-8" ?>
<!DOCTYPE svg PUBLIC "-//W3C//DTD SVG 1.1//EN" "http://www.w3.org/Graphics/SVG/1.1/DTD/svg11.dtd">
<svg width="256pt" height="256pt" viewBox="0 0 256 256" version="1.1" xmlns="http://www.w3.org/2000/svg">
<g id="#000000ff">
<path fill="#000000" opacity="1.00" d=" M 36.01 55.99 C 62.72 65.36 89.48 74.61 116.15 84.10 C 110.93 87.14 104.98 88.56 99.08 89.58 C 87.50 91.53 75.73 91.92 64.02 92.01 C 54.67 80.01 45.34 68.00 36.01 55.99 Z" />
<path fill="#000000" opacity="1.00" d=" M 139.90 84.09 C 166.57 74.70 193.25 65.36 219.96 56.07 C 210.63 68.05 201.32 80.04 191.98 92.01 C 179.54 91.91 167.02 91.49 154.76 89.19 C 149.62 88.12 144.44 86.81 139.90 84.09 Z" />
<path fill="#000000" opacity="1.00" d=" M 3.97 99.97 C 18.33 112.83 35.07 122.91 53.04 129.85 C 56.64 139.69 60.16 149.56 63.80 159.38 C 67.43 152.08 69.53 144.06 72.56 136.48 C 108.61 146.49 147.38 146.52 183.43 136.48 C 186.24 143.93 188.77 151.49 191.67 158.90 C 191.83 158.92 192.15 158.97 192.30 158.99 C 195.97 149.33 199.38 139.57 202.94 129.87 C 220.94 123.00 237.62 112.81 252.01 100.02 C 248.35 127.68 234.97 154.43 213.50 172.53 C 201.52 182.73 187.16 189.87 172.10 194.25 C 169.45 187.22 167.06 180.08 164.32 173.09 C 164.16 173.07 163.84 173.05 163.68 173.03 C 160.56 181.31 157.57 189.64 154.62 197.98 C 137.05 200.73 119.06 200.59 101.47 198.06 C 98.32 189.38 95.17 180.70 92.00 172.02 C 89.29 179.41 86.64 186.82 83.92 194.21 C 68.42 189.73 53.67 182.27 41.47 171.64 C 20.57 153.55 7.56 127.20 3.97 99.97 Z" />
</g>
</svg>
