<?xml version="1.0" encoding="UTF-8" ?>
<!DOCTYPE svg PUBLIC "-//W3C//DTD SVG 1.1//EN" "http://www.w3.org/Graphics/SVG/1.1/DTD/svg11.dtd">
<svg width="256pt" height="256pt" viewBox="0 0 256 256" version="1.1" xmlns="http://www.w3.org/2000/svg">
<g id="#000000ff">
<path fill="#000000" opacity="1.00" d=" M 114.88 0.00 L 139.23 0.00 C 165.95 0.87 192.85 2.29 219.00 8.19 C 229.34 10.77 240.25 14.19 247.74 22.20 C 253.44 28.11 254.33 37.94 249.66 44.72 C 244.85 51.91 236.54 55.50 228.74 58.43 C 225.03 53.52 221.06 48.81 216.82 44.36 C 221.56 42.81 226.58 41.55 230.60 38.46 C 232.13 37.29 233.58 35.24 232.63 33.26 C 230.95 29.82 227.50 27.71 224.38 25.73 C 213.00 19.21 200.31 15.39 187.65 12.26 C 150.72 3.59 111.90 3.13 74.76 10.81 C 61.10 13.79 47.45 17.56 34.92 23.88 C 30.77 26.18 26.26 28.51 23.62 32.61 C 22.37 34.42 23.27 36.79 24.87 38.05 C 28.94 41.44 34.22 42.75 39.16 44.37 C 34.88 48.79 30.92 53.49 27.25 58.42 C 19.89 55.63 12.19 52.34 7.22 45.96 C 2.67 40.32 2.03 31.90 5.71 25.66 C 8.63 20.64 13.57 17.20 18.63 14.58 C 29.03 9.38 40.58 7.18 51.96 5.28 C 72.76 1.86 93.85 0.80 114.88 0.00 Z" />
<path fill="#000000" opacity="1.00" d=" M 39.23 44.32 C 60.66 22.46 90.36 8.94 120.94 7.31 C 156.25 5.11 192.09 18.98 216.78 44.31 C 188.10 51.32 158.37 52.37 128.98 52.73 C 98.94 52.48 68.56 51.41 39.23 44.32 Z" />
<path fill="#000000" opacity="1.00" d=" M 27.19 58.46 C 32.72 60.00 38.23 61.65 43.88 62.70 C 67.01 67.00 90.54 68.64 114.03 69.20 C 136.71 69.67 159.42 69.06 182.01 66.90 C 197.77 65.30 213.60 63.24 228.76 58.45 C 246.29 82.66 254.76 113.27 251.87 143.04 C 249.17 173.69 234.52 203.07 211.64 223.65 C 190.34 243.23 162.02 254.56 133.19 256.00 L 122.97 256.00 C 90.55 254.49 58.85 240.15 36.84 216.20 C 16.10 194.16 4.12 164.24 3.60 134.01 C 3.00 107.14 11.49 80.24 27.19 58.46 M 68.66 92.62 C 63.70 99.77 60.60 108.38 60.40 117.11 C 63.89 114.31 65.90 110.12 69.45 107.36 C 77.35 100.25 89.26 97.73 99.16 101.93 C 106.56 104.73 111.91 110.86 116.37 117.14 C 116.52 116.62 116.81 115.58 116.96 115.05 C 116.23 107.01 113.28 99.12 108.64 92.50 C 104.13 86.13 97.03 80.99 88.97 80.95 C 80.67 80.76 73.28 86.07 68.66 92.62 M 156.17 84.18 C 147.43 89.59 142.38 99.32 140.01 109.05 C 139.47 111.69 138.45 114.53 139.64 117.15 C 143.23 112.33 146.95 107.39 152.22 104.30 C 160.41 98.98 171.37 98.43 180.03 102.96 C 186.55 106.00 190.91 111.85 195.27 117.32 C 196.14 113.56 194.79 109.82 193.86 106.22 C 191.13 97.17 185.89 88.23 177.40 83.55 C 170.88 79.89 162.46 80.15 156.17 84.18 M 86.17 165.29 C 83.16 166.49 83.28 170.16 84.17 172.75 C 87.19 185.49 97.04 195.99 109.11 200.77 C 124.00 206.78 141.94 205.35 155.29 196.25 C 164.19 190.25 170.66 180.60 172.35 169.95 C 173.09 166.56 169.14 163.77 166.11 165.32 C 142.89 173.27 117.05 173.81 93.60 166.46 C 91.20 165.89 88.65 164.29 86.17 165.29 Z" />
</g>
</svg>
