<?xml version="1.0" encoding="UTF-8" ?>
<!DOCTYPE svg PUBLIC "-//W3C//DTD SVG 1.1//EN" "http://www.w3.org/Graphics/SVG/1.1/DTD/svg11.dtd">
<svg width="256pt" height="256pt" viewBox="0 0 256 256" version="1.1" xmlns="http://www.w3.org/2000/svg">
<g id="#000000ff">
<path fill="#000000" opacity="1.00" d=" M 184.36 0.00 L 185.40 0.00 C 187.54 0.41 189.48 1.52 191.00 3.07 C 211.50 23.54 231.95 44.05 252.46 64.50 C 254.15 66.13 255.51 68.13 256.00 70.46 L 256.00 71.56 C 255.63 74.19 254.05 76.37 252.16 78.15 C 241.42 88.76 230.86 99.55 220.08 110.12 C 217.16 113.24 211.86 113.10 209.04 109.93 C 188.00 88.97 167.00 67.96 146.04 46.93 C 142.89 44.08 142.77 38.80 145.90 35.90 C 156.46 25.12 167.26 14.56 177.86 3.82 C 179.62 1.96 181.77 0.40 184.36 0.00 Z" />
<path fill="#000000" opacity="1.00" d=" M 64.25 92.24 C 87.78 80.49 111.28 68.70 134.81 56.97 C 156.22 78.38 177.63 99.78 199.04 121.20 C 187.28 144.73 175.50 168.26 163.73 191.79 C 162.63 194.25 160.59 196.16 158.04 197.05 C 109.23 216.56 60.43 236.10 11.61 255.59 L 12.76 256.00 L 10.96 256.00 C 23.56 242.62 36.90 229.93 49.80 216.83 C 67.17 199.51 84.42 182.09 101.86 164.85 C 107.64 167.39 114.47 167.81 120.30 165.19 C 128.89 161.59 134.66 152.25 133.81 142.94 C 133.28 132.14 123.84 122.70 113.04 122.19 C 103.71 121.34 94.36 127.15 90.79 135.76 C 88.18 141.59 88.64 148.39 91.15 154.17 C 60.80 184.56 30.51 215.01 0.00 245.24 L 0.00 244.94 C 4.60 234.40 8.61 223.61 12.97 212.97 C 28.31 174.63 43.65 136.29 58.99 97.95 C 59.86 95.38 61.78 93.34 64.25 92.24 Z" />
<path fill="#000000" opacity="1.00" d=" M 109.28 137.47 C 114.38 135.67 120.00 140.78 118.70 146.01 C 117.90 151.35 110.73 153.87 106.73 150.29 C 102.20 146.90 103.75 138.85 109.28 137.47 Z" />
</g>
</svg>
