<?xml version="1.0" encoding="UTF-8" ?>
<!DOCTYPE svg PUBLIC "-//W3C//DTD SVG 1.1//EN" "http://www.w3.org/Graphics/SVG/1.1/DTD/svg11.dtd">
<svg width="256pt" height="256pt" viewBox="0 0 256 256" version="1.1" xmlns="http://www.w3.org/2000/svg">
<g id="#000000ff">
<path fill="#000000" opacity="1.00" d=" M 81.64 0.00 L 174.42 0.00 C 179.84 0.52 185.06 3.23 188.31 7.64 C 192.56 13.16 193.38 21.06 190.36 27.34 C 187.74 33.01 182.20 37.24 176.01 38.13 C 172.88 38.54 169.73 38.41 166.59 38.41 C 166.57 54.27 166.61 70.14 166.56 86.00 C 166.22 89.11 168.46 91.50 169.87 94.03 C 192.46 131.47 215.01 168.94 237.61 206.38 C 240.16 210.52 242.22 215.05 242.91 219.90 C 244.89 231.79 239.73 244.93 229.43 251.47 C 225.47 254.09 220.81 255.40 216.14 256.00 L 41.51 256.00 C 34.36 255.71 27.34 252.79 22.27 247.72 C 14.40 239.85 11.23 227.71 14.05 216.97 C 15.59 210.65 19.53 205.36 22.74 199.83 C 43.93 164.66 65.12 129.50 86.32 94.34 C 87.77 91.71 90.18 89.24 89.82 86.01 C 89.75 70.14 89.82 54.27 89.78 38.40 C 84.71 38.42 79.30 38.81 74.69 36.30 C 67.17 32.60 62.79 23.66 64.56 15.45 C 66.05 7.25 73.39 0.81 81.64 0.00 M 104.44 145.72 C 96.57 147.37 89.09 150.47 81.93 154.05 C 80.14 154.82 78.94 156.37 78.01 158.01 C 65.55 178.88 52.97 199.68 40.53 220.56 C 37.68 224.57 41.12 230.70 46.02 230.36 C 100.69 230.44 155.36 230.38 210.03 230.39 C 213.31 230.71 216.64 228.44 217.16 225.11 C 217.72 222.50 216.07 220.23 214.83 218.10 C 202.51 197.75 190.30 177.32 177.98 156.97 C 176.50 154.20 172.98 152.87 170.04 154.03 C 165.52 155.37 160.86 156.52 156.11 156.22 C 146.29 155.75 138.13 149.61 128.96 146.81 C 121.09 144.14 112.52 144.00 104.44 145.72 Z" />
<path fill="#000000" opacity="1.00" d=" M 88.89 164.99 C 97.51 160.52 107.11 156.98 116.97 157.45 C 127.12 157.99 135.55 164.31 145.06 167.11 C 152.91 169.69 161.44 169.53 169.41 167.57 C 179.49 184.22 189.50 200.91 199.54 217.59 C 152.10 217.61 104.65 217.60 57.20 217.59 C 67.79 200.08 78.14 182.39 88.89 164.99 Z" />
</g>
</svg>
