<?xml version="1.0" encoding="UTF-8" ?>
<!DOCTYPE svg PUBLIC "-//W3C//DTD SVG 1.1//EN" "http://www.w3.org/Graphics/SVG/1.1/DTD/svg11.dtd">
<svg width="256pt" height="256pt" viewBox="0 0 256 256" version="1.1" xmlns="http://www.w3.org/2000/svg">
<g id="#000000ff">
<path fill="#000000" opacity="1.00" d=" M 126.61 0.00 L 129.32 0.00 C 138.45 0.38 147.48 3.62 154.56 9.45 C 163.20 16.41 168.86 26.93 169.92 37.97 C 170.90 47.50 168.50 57.33 163.20 65.31 C 156.73 75.28 145.85 82.24 134.07 83.86 C 121.32 85.81 107.82 81.41 98.64 72.37 C 90.74 64.77 86.02 53.98 85.87 43.01 C 85.59 31.88 89.98 20.74 97.78 12.80 C 105.26 5.00 115.84 0.43 126.61 0.00 Z" />
<path fill="#000000" opacity="1.00" d=" M 208.69 100.76 C 223.81 95.05 239.87 91.97 256.00 91.25 L 256.00 154.75 C 239.31 154.48 222.61 153.60 206.05 151.45 C 185.46 148.84 165.24 143.89 145.47 137.63 C 165.62 123.89 185.57 109.18 208.69 100.76 Z" />
<path fill="#000000" opacity="1.00" d=" M 0.00 124.86 C 22.77 125.18 45.58 126.81 67.99 130.98 C 106.33 137.83 141.92 154.80 180.11 162.28 C 205.07 167.38 230.56 169.39 256.00 169.76 L 256.00 222.27 C 170.67 222.27 85.33 222.27 0.00 222.27 L 0.00 124.86 Z" />
<path fill="#000000" opacity="1.00" d=" M 0.00 237.26 C 85.33 237.26 170.67 237.26 256.00 237.26 L 256.00 256.00 L 0.00 256.00 L 0.00 237.26 Z" />
</g>
</svg>
