
<svg id="logo" class="logo" width="892pt" height="892pt" viewBox="0 0 892 892" version="1.1" xmlns="http://www.w3.org/2000/svg">
<g id="#ffffffff">
</g>
<g id="#000000ff">
<path fill="#000000" opacity="1.00" d=" M 339.44 11.95 C 349.54 20.78 360.51 28.59 370.85 37.15 C 397.66 58.31 424.42 79.53 451.20 100.73 C 457.19 105.48 463.36 110.05 469.06 115.15 C 469.10 129.70 469.11 144.25 469.06 158.80 C 444.58 179.47 419.44 199.38 394.73 219.77 C 488.82 220.13 582.91 219.82 677.00 219.93 C 682.60 220.11 688.72 218.91 693.67 222.27 C 702.29 229.07 707.25 239.25 711.25 249.22 C 691.97 271.05 672.91 293.03 653.38 314.63 C 651.03 311.19 649.19 307.45 647.04 303.91 C 643.46 299.72 638.51 297.03 633.91 294.12 C 632.79 293.24 631.38 293.15 630.03 293.18 C 614.71 293.19 599.39 293.22 584.07 293.17 C 584.01 355.31 583.98 417.45 584.09 479.59 C 587.53 483.30 592.02 485.94 595.02 490.05 C 606.33 502.09 615.33 516.81 619.26 532.94 C 611.41 519.57 601.08 507.82 589.49 497.58 C 583.45 492.40 577.63 486.91 570.95 482.52 C 570.85 419.37 570.91 356.22 570.92 293.07 C 566.31 293.10 561.69 293.09 557.08 293.06 C 557.00 354.76 557.12 416.45 557.02 478.14 C 549.81 474.08 541.52 472.45 533.37 471.70 C 526.96 470.16 519.36 472.97 513.97 468.08 C 514.37 470.37 513.26 473.85 516.03 474.95 C 519.82 476.61 524.12 476.63 528.08 477.83 C 555.33 485.58 578.94 504.38 593.45 528.63 C 604.40 546.60 611.39 566.88 614.37 587.70 C 615.46 592.05 615.00 596.56 615.10 601.00 C 615.41 613.65 614.51 626.38 616.02 638.95 C 616.05 690.30 616.21 741.65 616.06 793.00 C 616.46 800.61 613.37 808.38 616.29 815.81 C 619.15 822.87 622.71 829.69 627.07 835.96 C 634.05 846.79 641.99 856.96 650.11 866.95 C 651.93 869.50 654.51 871.47 655.88 874.34 C 634.65 865.10 617.61 848.32 604.15 829.82 C 590.70 811.37 580.34 789.95 577.85 767.04 C 577.70 700.37 577.82 633.68 577.79 567.00 C 578.16 544.93 569.70 523.52 557.19 505.60 C 556.84 586.40 557.12 667.20 557.04 748.00 C 556.54 762.28 560.46 776.31 565.52 789.55 C 570.72 802.83 578.02 815.24 586.55 826.64 C 574.70 817.18 563.57 806.85 551.93 797.13 C 521.73 771.04 491.47 745.02 461.27 718.93 C 465.31 717.83 469.68 716.88 472.67 713.70 C 478.67 707.76 482.19 699.40 482.90 691.05 C 482.90 584.03 482.90 477.02 482.90 370.00 C 482.80 363.06 483.10 356.11 482.77 349.18 C 479.18 338.68 469.08 332.75 460.25 327.09 C 464.99 321.83 470.90 317.86 475.73 312.69 C 481.00 308.69 485.34 303.64 490.60 299.62 C 495.62 294.29 501.57 290.02 506.64 284.75 C 510.09 281.95 513.60 279.17 516.39 275.67 C 504.52 280.74 493.46 287.51 481.84 293.11 C 470.89 293.33 459.91 293.02 448.95 293.08 C 435.70 291.41 422.28 292.44 408.95 292.08 C 395.08 290.31 381.01 291.58 367.07 290.96 C 359.51 289.53 351.78 290.52 344.15 290.05 C 342.78 290.02 342.06 288.62 341.07 287.89 C 334.04 281.03 327.63 272.78 325.72 262.93 C 333.90 252.47 343.33 243.08 351.75 232.82 C 360.91 222.92 369.52 212.55 378.65 202.62 C 385.12 194.73 392.37 187.51 398.67 179.47 C 399.02 166.45 398.68 153.39 398.75 140.35 C 388.45 133.03 378.66 125.04 368.50 117.54 C 352.70 105.92 337.40 93.63 321.47 82.18 C 301.67 100.16 281.43 117.68 261.62 135.68 C 260.34 136.55 259.20 137.61 258.49 139.01 C 262.06 137.60 265.19 135.35 268.50 133.45 C 274.30 129.84 280.31 126.55 286.02 122.81 C 286.12 256.83 286.00 390.86 286.08 524.88 C 308.95 533.28 328.85 548.04 346.81 564.19 C 355.58 572.80 364.35 581.43 371.88 591.16 C 372.70 592.66 374.78 593.81 376.09 592.15 C 387.86 579.91 393.61 563.25 396.79 546.89 C 397.13 510.92 396.76 474.92 396.98 438.94 C 408.34 444.58 421.30 444.28 433.64 443.73 C 429.93 442.05 425.84 441.52 422.07 439.99 C 402.61 431.98 386.87 417.19 373.69 401.13 C 365.96 407.47 358.50 414.11 350.88 420.58 C 350.82 404.43 350.75 388.27 350.90 372.12 C 353.21 367.35 357.49 363.95 361.04 360.12 C 372.67 347.97 386.91 338.62 401.80 330.95 C 406.67 342.21 412.99 352.82 420.41 362.59 C 433.84 379.18 450.44 393.72 470.13 402.39 C 470.24 439.27 470.15 476.15 470.17 513.03 C 469.72 517.78 467.33 522.09 465.59 526.47 C 455.02 552.40 440.33 576.71 421.69 597.63 C 401.18 620.07 375.72 638.66 346.63 648.21 C 339.76 637.68 331.75 627.97 323.64 618.38 C 317.25 611.76 310.70 605.29 304.15 598.82 C 279.98 576.98 251.42 559.75 220.32 549.80 C 211.41 547.32 202.48 544.32 193.17 543.89 C 202.97 538.91 209.98 529.41 212.86 518.94 C 213.07 512.94 212.63 506.91 213.69 500.96 C 213.96 390.29 213.96 279.62 213.83 168.95 C 214.38 159.52 207.95 151.57 200.80 146.24 C 197.83 143.55 194.37 141.51 191.19 139.10 C 240.57 96.67 290.12 54.43 339.44 11.95 Z" />
<path fill="#000000" opacity="1.00" d=" M 303.85 112.86 C 306.89 112.84 309.94 112.84 312.99 112.87 C 313.16 241.05 312.91 369.24 313.11 497.42 C 325.42 504.87 335.98 514.80 345.77 525.27 C 349.81 530.38 354.33 535.16 357.65 540.82 C 355.40 539.26 353.60 537.20 351.65 535.32 C 337.63 522.74 321.49 512.39 303.82 505.74 C 303.81 374.78 303.77 243.82 303.85 112.86 Z" />
<path fill="#000000" opacity="1.00" d=" M 619.17 533.19 C 619.84 533.86 619.84 533.86 619.17 533.19 Z" />
</g>
</svg>
