<?xml version="1.0" encoding="UTF-8" ?>
<!DOCTYPE svg PUBLIC "-//W3C//DTD SVG 1.1//EN" "http://www.w3.org/Graphics/SVG/1.1/DTD/svg11.dtd">
<svg width="256pt" height="256pt" viewBox="0 0 256 256" version="1.1" xmlns="http://www.w3.org/2000/svg">
<g id="#000000ff">
<path fill="#000000" opacity="1.00" d=" M 6.26 0.00 L 249.56 0.00 C 252.77 0.71 255.16 3.12 256.00 6.27 L 256.00 16.51 C 174.47 47.79 81.52 47.77 0.00 16.48 L 0.00 6.39 C 0.74 3.22 3.12 0.83 6.26 0.00 Z" />
<path fill="#000000" opacity="1.00" d=" M 0.00 32.48 C 7.45 35.36 15.10 37.64 22.72 40.00 C 21.50 60.89 15.83 81.48 6.08 100.00 C 4.05 100.00 2.03 100.00 0.00 100.00 L 0.00 32.48 Z" />
<path fill="#000000" opacity="1.00" d=" M 233.28 40.06 C 240.89 37.67 248.57 35.42 256.00 32.50 L 256.00 100.00 C 253.97 100.00 251.94 100.00 249.92 100.00 C 240.17 81.50 234.50 60.93 233.28 40.06 Z" />
<path fill="#000000" opacity="1.00" d=" M 37.48 44.00 C 44.93 45.76 52.40 47.44 59.92 48.85 C 57.33 68.51 47.03 87.15 31.33 99.34 C 28.77 100.67 25.63 99.77 22.85 100.01 C 31.00 82.40 35.98 63.35 37.48 44.00 Z" />
<path fill="#000000" opacity="1.00" d=" M 196.08 48.84 C 203.61 47.52 211.07 45.76 218.53 44.07 C 220.00 63.40 225.01 82.43 233.16 100.01 C 230.16 99.70 226.59 100.92 224.05 98.87 C 208.71 86.64 198.59 68.27 196.08 48.84 Z" />
<path fill="#000000" opacity="1.00" d=" M 74.72 51.26 C 110.02 56.14 145.98 56.22 181.28 51.27 C 184.05 72.50 194.52 92.53 210.35 106.94 C 194.20 119.50 183.28 138.61 181.03 158.98 C 180.26 165.47 180.55 172.01 180.50 178.53 C 145.50 178.53 110.50 178.54 75.49 178.53 C 75.49 170.30 75.80 161.98 74.19 153.86 C 70.86 135.39 60.40 118.48 45.68 106.91 C 61.51 92.52 71.92 72.47 74.72 51.26 Z" />
<path fill="#000000" opacity="1.00" d=" M 0.00 115.01 C 2.28 114.96 4.56 115.02 6.83 114.99 C 13.84 124.88 18.98 136.14 21.30 148.05 C 23.46 158.07 22.95 168.37 23.00 178.54 C 15.33 178.53 7.67 178.53 0.00 178.54 L 0.00 115.01 Z" />
<path fill="#000000" opacity="1.00" d=" M 24.70 114.95 C 27.22 115.17 30.05 114.42 32.31 115.87 C 45.40 124.33 55.01 137.94 58.69 153.08 C 60.88 161.38 60.50 170.03 60.50 178.53 C 53.00 178.53 45.50 178.53 38.00 178.54 C 37.94 168.66 38.39 158.70 36.71 148.91 C 34.84 136.97 30.59 125.48 24.70 114.95 Z" />
<path fill="#000000" opacity="1.00" d=" M 223.25 116.17 C 225.57 114.41 228.62 115.13 231.31 114.95 C 225.22 125.78 220.91 137.65 219.12 149.96 C 217.62 159.41 218.07 169.01 218.00 178.54 C 210.50 178.53 203.00 178.53 195.50 178.53 C 195.55 171.07 195.13 163.53 196.62 156.17 C 199.67 139.98 209.49 125.22 223.25 116.17 Z" />
<path fill="#000000" opacity="1.00" d=" M 249.18 114.99 C 251.45 115.02 253.73 114.96 256.00 115.01 L 256.00 178.54 C 248.33 178.53 240.67 178.53 233.00 178.54 C 233.06 168.38 232.52 158.10 234.68 148.10 C 237.01 136.17 242.13 124.87 249.18 114.99 Z" />
<path fill="#000000" opacity="1.00" d=" M 0.00 193.53 C 85.33 193.53 170.67 193.53 256.00 193.53 L 256.00 211.46 C 251.35 209.18 246.15 208.37 241.00 208.50 C 231.99 208.64 222.96 208.36 213.95 208.63 C 207.02 208.83 200.75 212.34 195.75 216.94 C 191.73 213.37 187.12 210.23 181.76 209.19 C 174.91 207.94 167.90 208.73 160.99 208.54 C 154.11 208.73 147.08 207.82 140.35 209.60 C 135.63 210.83 131.64 213.79 128.01 216.93 C 123.50 212.91 118.15 209.51 112.02 208.85 C 105.03 208.13 97.98 208.70 90.97 208.53 C 84.09 208.67 76.90 207.75 70.35 210.36 C 66.53 211.75 63.33 214.33 60.28 216.94 C 55.22 212.32 48.90 208.79 41.91 208.62 C 32.94 208.36 23.96 208.64 14.99 208.50 C 9.85 208.37 4.65 209.19 0.00 211.45 L 0.00 193.53 Z" />
<path fill="#000000" opacity="1.00" d=" M 4.98 226.06 C 8.63 223.09 13.58 223.54 17.98 223.49 C 25.65 223.69 33.33 223.30 40.99 223.63 C 47.04 223.74 52.36 228.98 52.62 235.01 C 53.00 242.00 52.62 249.00 52.75 256.00 L 6.45 256.00 C 3.24 255.29 0.84 252.89 0.00 249.73 L 0.00 234.80 C 0.64 231.45 2.11 228.08 4.98 226.06 Z" />
<path fill="#000000" opacity="1.00" d=" M 75.43 224.49 C 79.14 223.14 83.16 223.57 87.03 223.50 C 94.35 223.70 101.68 223.28 109.00 223.65 C 114.94 223.88 120.12 229.09 120.36 235.02 C 120.77 242.01 120.36 249.01 120.51 256.00 L 67.74 256.00 C 67.89 248.99 67.47 241.96 67.90 234.96 C 68.11 230.39 71.26 226.24 75.43 224.49 Z" />
<path fill="#000000" opacity="1.00" d=" M 137.05 230.02 C 139.20 226.06 143.54 223.50 148.05 223.57 C 157.68 223.55 167.32 223.35 176.94 223.67 C 182.79 223.97 187.84 229.13 188.10 234.97 C 188.53 241.97 188.11 248.99 188.26 256.00 L 135.49 256.00 C 135.53 250.34 135.47 244.67 135.46 239.01 C 135.51 235.97 135.53 232.75 137.05 230.02 Z" />
<path fill="#000000" opacity="1.00" d=" M 210.65 224.62 C 214.57 223.04 218.91 223.60 223.04 223.51 C 230.35 223.72 237.68 223.22 244.98 223.70 C 250.75 224.08 255.12 229.09 256.00 234.59 L 256.00 249.50 C 255.31 252.74 252.89 255.17 249.70 256.00 L 203.25 256.00 C 203.38 249.00 203.01 242.00 203.38 235.01 C 203.61 230.54 206.56 226.41 210.65 224.62 Z" />
</g>
</svg>
