<?xml version="1.0" encoding="UTF-8" ?>
<!DOCTYPE svg PUBLIC "-//W3C//DTD SVG 1.1//EN" "http://www.w3.org/Graphics/SVG/1.1/DTD/svg11.dtd">
<svg width="256pt" height="256pt" viewBox="0 0 256 256" version="1.1" xmlns="http://www.w3.org/2000/svg">
<g id="#000000ff">
<path fill="#000000" opacity="1.00" d=" M 114.55 8.76 C 139.05 5.99 164.39 10.96 185.95 22.97 C 210.70 36.57 230.32 59.22 240.24 85.66 C 250.12 111.61 250.55 141.02 241.38 167.24 C 232.64 192.69 215.03 214.98 192.26 229.33 C 168.67 244.38 139.70 250.73 111.98 246.91 C 84.25 243.26 58.03 229.47 39.26 208.75 C 20.65 188.44 9.47 161.54 8.16 134.03 C 6.58 104.86 16.21 75.28 34.64 52.62 C 54.15 28.28 83.52 12.12 114.55 8.76 M 93.28 80.23 C 85.81 81.37 79.83 88.43 80.02 95.99 C 79.79 104.53 87.47 112.20 96.01 111.96 C 105.28 112.25 113.30 103.16 111.85 93.99 C 110.97 85.23 101.93 78.53 93.28 80.23 M 157.29 80.23 C 149.15 81.43 142.93 89.70 144.13 97.86 C 144.89 106.05 152.82 112.67 161.02 111.93 C 169.59 111.61 176.76 103.41 175.93 94.87 C 175.55 85.74 166.24 78.45 157.29 80.23 M 69.32 152.46 C 65.44 154.03 63.36 158.95 65.11 162.79 C 76.69 184.54 100.38 199.05 124.96 199.92 C 151.65 201.33 178.47 186.39 190.99 162.74 C 193.57 157.21 187.93 150.49 182.04 151.95 C 177.55 152.67 175.99 157.36 173.59 160.56 C 162.18 176.86 141.59 186.07 121.83 183.66 C 104.52 181.83 88.45 171.37 79.72 156.32 C 77.89 152.61 73.14 150.67 69.32 152.46 Z" />
</g>
</svg>
