<?xml version="1.0" encoding="UTF-8" ?>
<!DOCTYPE svg PUBLIC "-//W3C//DTD SVG 1.1//EN" "http://www.w3.org/Graphics/SVG/1.1/DTD/svg11.dtd">
<svg width="256pt" height="256pt" viewBox="0 0 256 256" version="1.1" xmlns="http://www.w3.org/2000/svg">
<g id="#000000ff">
<path fill="#000000" opacity="1.00" d=" M 157.71 27.73 C 161.78 24.90 166.55 22.29 171.69 23.32 C 184.09 24.72 192.67 38.99 188.53 50.61 C 187.12 54.65 182.88 56.23 178.96 56.53 C 190.51 66.22 200.70 77.68 208.47 90.64 C 213.94 99.83 217.86 110.14 218.31 120.92 C 234.22 127.18 248.01 138.96 256.00 154.14 L 256.00 156.02 C 255.11 157.17 254.41 158.75 252.82 159.05 C 250.60 159.74 248.82 157.85 247.09 156.80 C 235.73 148.14 220.40 145.22 206.58 148.69 C 188.94 152.78 174.40 167.67 170.76 185.41 C 169.92 189.10 169.75 193.19 167.31 196.28 C 164.72 199.82 160.33 201.69 156.00 201.60 C 138.30 201.62 120.60 201.57 102.90 201.62 C 101.35 201.46 98.83 201.96 98.30 199.95 C 97.80 195.65 98.21 191.25 97.27 186.99 C 94.49 171.56 83.73 157.89 69.40 151.55 C 52.52 143.76 31.15 146.78 17.36 159.35 C 15.01 161.39 12.54 164.19 9.08 163.70 C 4.10 163.00 0.72 158.22 0.00 153.49 L 0.00 151.08 C 1.04 146.11 4.00 141.89 6.81 137.77 C 12.74 129.26 20.60 122.23 29.39 116.78 C 25.19 116.71 20.94 117.16 16.78 116.45 C 12.71 115.59 10.13 111.70 9.37 107.83 C 7.84 100.30 10.65 91.56 17.25 87.25 C 21.00 84.74 25.74 84.49 30.08 85.24 C 45.25 87.66 60.67 91.14 76.09 88.90 C 83.93 87.90 91.12 84.23 98.94 83.10 C 105.37 82.07 112.28 82.00 118.30 84.81 C 127.79 89.13 132.78 101.72 128.23 111.22 C 126.92 114.29 123.85 115.86 120.88 116.96 C 114.36 129.22 112.09 143.32 112.03 157.08 C 111.81 167.58 120.51 177.23 130.96 178.16 C 142.02 179.04 152.91 174.29 161.17 167.16 C 171.93 157.62 175.86 141.67 171.80 128.01 C 165.16 104.17 158.59 80.32 151.91 56.49 C 148.92 55.91 146.08 54.78 143.54 53.11 C 140.05 53.44 135.20 53.10 134.43 48.83 C 133.37 44.89 137.16 42.51 140.25 41.25 C 141.63 38.79 142.85 35.98 145.45 34.56 C 149.54 32.29 153.86 30.42 157.71 27.73 Z" />
<path fill="#000000" opacity="1.00" d=" M 45.21 159.18 C 53.80 158.22 62.75 160.28 69.93 165.14 C 78.38 170.73 84.34 179.93 85.91 189.95 C 87.33 198.53 85.60 207.61 81.06 215.03 C 76.03 223.43 67.53 229.66 57.99 231.87 C 49.19 233.99 39.62 232.73 31.69 228.34 C 23.14 223.69 16.57 215.54 13.90 206.17 C 10.85 195.72 12.70 183.94 18.94 175.00 C 24.88 166.28 34.71 160.34 45.21 159.18 Z" />
<path fill="#000000" opacity="1.00" d=" M 214.17 159.18 C 223.00 158.20 232.16 160.48 239.42 165.60 C 249.77 172.73 255.97 185.39 255.15 197.95 C 254.57 211.16 246.22 223.62 234.26 229.24 C 225.36 233.55 214.71 234.06 205.44 230.60 C 195.62 227.03 187.53 219.06 183.78 209.31 C 179.73 199.01 180.63 186.88 186.27 177.35 C 192.02 167.34 202.69 160.37 214.17 159.18 Z" />
</g>
</svg>
