<?xml version="1.0" encoding="UTF-8" ?>
<!DOCTYPE svg PUBLIC "-//W3C//DTD SVG 1.1//EN" "http://www.w3.org/Graphics/SVG/1.1/DTD/svg11.dtd">
<svg width="256pt" height="256pt" viewBox="0 0 256 256" version="1.1" xmlns="http://www.w3.org/2000/svg">
<g id="#000000ff">
<path fill="#000000" opacity="1.00" d=" M 0.01 0.01 C 18.17 1.81 36.32 3.76 54.47 5.66 C 75.74 30.19 96.75 54.95 118.07 79.43 C 106.51 93.39 94.46 106.96 82.71 120.76 C 57.03 98.66 31.32 76.59 5.67 54.47 C 3.79 36.31 1.88 18.16 0.01 0.01 Z" />
<path fill="#000000" opacity="1.00" d=" M 201.52 5.67 C 219.68 3.84 237.83 1.91 255.99 0.03 C 254.11 18.19 252.20 36.33 250.33 54.49 C 199.50 98.31 148.59 142.02 97.72 185.80 C 103.19 191.33 108.75 196.77 114.19 202.33 C 110.65 205.86 107.15 209.42 103.57 212.91 C 83.44 192.72 63.28 172.56 43.10 152.43 C 46.62 148.88 50.15 145.33 53.72 141.82 C 59.23 147.29 64.69 152.81 70.20 158.28 C 114.00 107.44 157.72 56.52 201.52 5.67 Z" />
<path fill="#000000" opacity="1.00" d=" M 139.53 169.59 C 150.30 160.41 160.97 151.12 171.74 141.94 C 176.45 147.38 181.10 152.87 185.82 158.29 C 191.33 152.81 196.81 147.30 202.31 141.82 C 205.87 145.33 209.41 148.86 212.91 152.42 C 192.74 172.58 172.58 192.74 152.43 212.91 C 148.88 209.38 145.35 205.85 141.82 202.30 C 147.31 196.80 152.82 191.33 158.29 185.82 C 152.09 180.35 145.72 175.07 139.53 169.59 Z" />
<path fill="#000000" opacity="1.00" d=" M 0.00 233.21 C 17.10 216.08 34.19 198.96 51.35 181.88 C 58.93 189.49 66.56 197.06 74.13 204.69 C 57.05 221.82 39.93 238.90 22.81 256.00 L 22.31 256.00 C 11.02 255.00 1.49 245.61 0.00 234.42 L 0.00 233.21 Z" />
<path fill="#000000" opacity="1.00" d=" M 181.88 204.68 C 189.49 197.08 197.08 189.46 204.71 181.88 C 221.82 198.96 238.91 216.06 256.00 233.16 L 256.00 233.65 C 255.00 245.17 245.22 254.97 233.71 256.00 L 233.19 256.00 C 216.08 238.90 198.98 221.79 181.88 204.68 Z" />
</g>
</svg>
